<mxfile host="app.diagrams.net" modified="2023-01-28T18:30:58.113Z" agent="5.0 (Macintosh; Intel Mac OS X 10_15_7) AppleWebKit/537.36 (KHTML, like Gecko) Chrome/109.0.0.0 Safari/537.36" etag="peci0w1gDGxFN0p-fOVO" version="20.8.13" type="github">
  <diagram name="Page-1" id="VbNA3riyBiIgsSvw0oge">
    <mxGraphModel dx="1578" dy="1071" grid="1" gridSize="10" guides="1" tooltips="1" connect="1" arrows="1" fold="1" page="1" pageScale="1" pageWidth="827" pageHeight="1169" math="0" shadow="0">
      <root>
        <mxCell id="0" />
        <mxCell id="1" parent="0" />
        <mxCell id="iR06TE0AQQWkr2aL_XJf-8" value="" style="rounded=1;whiteSpace=wrap;html=1;fillColor=#d5e8d4;strokeColor=#82b366;" vertex="1" parent="1">
          <mxGeometry x="630" y="300" width="790" height="170" as="geometry" />
        </mxCell>
        <mxCell id="cMBQ_GZlDyUK9xvhGsAw-21" value="" style="group" parent="1" vertex="1" connectable="0">
          <mxGeometry x="30" y="50" width="460" height="640" as="geometry" />
        </mxCell>
        <mxCell id="cMBQ_GZlDyUK9xvhGsAw-22" value="" style="rounded=1;whiteSpace=wrap;html=1;fontSize=13;fillColor=#d5e8d4;strokeColor=#82b366;" parent="cMBQ_GZlDyUK9xvhGsAw-21" vertex="1">
          <mxGeometry width="459.99999999999994" height="640" as="geometry" />
        </mxCell>
        <mxCell id="cMBQ_GZlDyUK9xvhGsAw-23" value="&lt;font style=&quot;font-size: 17px;&quot;&gt;&lt;b&gt;Apache Kafka&lt;/b&gt;&lt;/font&gt;" style="text;html=1;align=center;verticalAlign=middle;resizable=0;points=[];autosize=1;strokeColor=none;fillColor=none;fontSize=13;fontColor=#000000;" parent="cMBQ_GZlDyUK9xvhGsAw-21" vertex="1">
          <mxGeometry x="160.00426229508193" y="15.238095238095237" width="140" height="30" as="geometry" />
        </mxCell>
        <mxCell id="cMBQ_GZlDyUK9xvhGsAw-26" value="&lt;font style=&quot;font-size: 13px;&quot;&gt;Store&lt;/font&gt;" style="rounded=1;whiteSpace=wrap;html=1;fontSize=17;fontColor=#000000;" parent="cMBQ_GZlDyUK9xvhGsAw-21" vertex="1">
          <mxGeometry x="395" y="450" width="40" height="50" as="geometry" />
        </mxCell>
        <mxCell id="0prQu3RbLBqm5UqYHzIN-27" value="" style="group" parent="1" vertex="1" connectable="0">
          <mxGeometry x="140" y="140" width="260" height="490" as="geometry" />
        </mxCell>
        <mxCell id="0prQu3RbLBqm5UqYHzIN-25" value="" style="rounded=1;whiteSpace=wrap;html=1;fillColor=#fff2cc;strokeColor=#d6b656;" parent="0prQu3RbLBqm5UqYHzIN-27" vertex="1">
          <mxGeometry width="260" height="489.99999999999994" as="geometry" />
        </mxCell>
        <mxCell id="0prQu3RbLBqm5UqYHzIN-26" value="&lt;font style=&quot;font-size: 17px;&quot;&gt;&lt;b&gt;Loop (every 1 min)&lt;/b&gt;&lt;/font&gt;" style="text;html=1;align=center;verticalAlign=middle;resizable=0;points=[];autosize=1;strokeColor=none;fillColor=none;fontColor=#000000;" parent="0prQu3RbLBqm5UqYHzIN-27" vertex="1">
          <mxGeometry x="45" width="170" height="30" as="geometry" />
        </mxCell>
        <mxCell id="0prQu3RbLBqm5UqYHzIN-11" value="&lt;font color=&quot;#ff4040&quot;&gt;1&lt;/font&gt;" style="text;html=1;align=center;verticalAlign=middle;resizable=0;points=[];autosize=1;strokeColor=none;fillColor=none;" parent="0prQu3RbLBqm5UqYHzIN-27" vertex="1">
          <mxGeometry y="71.45833333333333" width="30" height="30" as="geometry" />
        </mxCell>
        <mxCell id="0prQu3RbLBqm5UqYHzIN-23" value="&lt;font color=&quot;#ff4040&quot;&gt;3&lt;/font&gt;" style="text;html=1;align=center;verticalAlign=middle;resizable=0;points=[];autosize=1;strokeColor=none;fillColor=none;" parent="0prQu3RbLBqm5UqYHzIN-27" vertex="1">
          <mxGeometry y="229.68749999999997" width="30" height="30" as="geometry" />
        </mxCell>
        <mxCell id="cMBQ_GZlDyUK9xvhGsAw-33" value="GET HTTP Query" style="rounded=1;whiteSpace=wrap;html=1;fontSize=13;fontColor=#000000;" parent="0prQu3RbLBqm5UqYHzIN-27" vertex="1">
          <mxGeometry x="80" y="40" width="120" height="60" as="geometry" />
        </mxCell>
        <mxCell id="0prQu3RbLBqm5UqYHzIN-4" value="" style="endArrow=classic;html=1;rounded=0;entryX=0;entryY=0.5;entryDx=0;entryDy=0;exitX=1.011;exitY=0.127;exitDx=0;exitDy=0;exitPerimeter=0;" parent="1" source="0prQu3RbLBqm5UqYHzIN-18" target="cMBQ_GZlDyUK9xvhGsAw-33" edge="1">
          <mxGeometry width="50" height="50" relative="1" as="geometry">
            <mxPoint x="180" y="200" as="sourcePoint" />
            <mxPoint x="290" y="284" as="targetPoint" />
          </mxGeometry>
        </mxCell>
        <mxCell id="0prQu3RbLBqm5UqYHzIN-5" value="HTTP GET" style="edgeLabel;html=1;align=center;verticalAlign=middle;resizable=0;points=[];" parent="0prQu3RbLBqm5UqYHzIN-4" vertex="1" connectable="0">
          <mxGeometry x="0.0057" y="-4" relative="1" as="geometry">
            <mxPoint x="-97" y="15" as="offset" />
          </mxGeometry>
        </mxCell>
        <mxCell id="0prQu3RbLBqm5UqYHzIN-6" value="Kafka instance" style="whiteSpace=wrap;html=1;" parent="1" vertex="1">
          <mxGeometry x="400" y="370" width="90" height="70" as="geometry" />
        </mxCell>
        <mxCell id="0prQu3RbLBqm5UqYHzIN-18" value="Kafka PRODUCER" style="whiteSpace=wrap;html=1;fontColor=#000000;" parent="1" vertex="1">
          <mxGeometry x="50" y="210" width="90" height="220" as="geometry" />
        </mxCell>
        <mxCell id="0prQu3RbLBqm5UqYHzIN-28" value="" style="endArrow=classic;html=1;rounded=0;fontSize=17;fontColor=#000000;entryX=0.25;entryY=0;entryDx=0;entryDy=0;exitX=0;exitY=0.5;exitDx=0;exitDy=0;" parent="1" source="0prQu3RbLBqm5UqYHzIN-25" target="0prQu3RbLBqm5UqYHzIN-30" edge="1">
          <mxGeometry width="50" height="50" relative="1" as="geometry">
            <mxPoint x="220" y="380" as="sourcePoint" />
            <mxPoint x="220" y="470" as="targetPoint" />
          </mxGeometry>
        </mxCell>
        <mxCell id="0prQu3RbLBqm5UqYHzIN-34" value="JSON RESPONSE DATA" style="edgeLabel;html=1;align=center;verticalAlign=middle;resizable=0;points=[];fontSize=13;fontColor=#000000;" parent="0prQu3RbLBqm5UqYHzIN-28" vertex="1" connectable="0">
          <mxGeometry x="0.242" y="1" relative="1" as="geometry">
            <mxPoint as="offset" />
          </mxGeometry>
        </mxCell>
        <mxCell id="0prQu3RbLBqm5UqYHzIN-31" style="edgeStyle=orthogonalEdgeStyle;rounded=0;orthogonalLoop=1;jettySize=auto;html=1;entryX=0.5;entryY=1;entryDx=0;entryDy=0;fontSize=13;fontColor=#000000;" parent="1" source="0prQu3RbLBqm5UqYHzIN-30" target="cMBQ_GZlDyUK9xvhGsAw-26" edge="1">
          <mxGeometry relative="1" as="geometry" />
        </mxCell>
        <mxCell id="0prQu3RbLBqm5UqYHzIN-32" value="YES" style="edgeLabel;html=1;align=center;verticalAlign=middle;resizable=0;points=[];fontSize=13;fontColor=#000000;" parent="0prQu3RbLBqm5UqYHzIN-31" vertex="1" connectable="0">
          <mxGeometry x="-0.4138" relative="1" as="geometry">
            <mxPoint x="10" y="4" as="offset" />
          </mxGeometry>
        </mxCell>
        <mxCell id="0prQu3RbLBqm5UqYHzIN-41" style="edgeStyle=orthogonalEdgeStyle;rounded=0;orthogonalLoop=1;jettySize=auto;html=1;entryX=1;entryY=0.5;entryDx=0;entryDy=0;fontSize=13;fontColor=#000000;" parent="1" source="0prQu3RbLBqm5UqYHzIN-30" target="0prQu3RbLBqm5UqYHzIN-37" edge="1">
          <mxGeometry relative="1" as="geometry" />
        </mxCell>
        <mxCell id="0prQu3RbLBqm5UqYHzIN-42" value="NO" style="edgeLabel;html=1;align=center;verticalAlign=middle;resizable=0;points=[];fontSize=13;fontColor=#000000;" parent="0prQu3RbLBqm5UqYHzIN-41" vertex="1" connectable="0">
          <mxGeometry x="-0.4" relative="1" as="geometry">
            <mxPoint as="offset" />
          </mxGeometry>
        </mxCell>
        <mxCell id="0prQu3RbLBqm5UqYHzIN-30" value="&lt;font style=&quot;font-size: 13px;&quot;&gt;&lt;b&gt;Test : &lt;/b&gt;(json youngest timestamp &amp;gt; kafka youngest timestamp)&lt;/font&gt;" style="rounded=1;whiteSpace=wrap;html=1;fontSize=17;fontColor=#000000;" parent="1" vertex="1">
          <mxGeometry x="160" y="550" width="230" height="60" as="geometry" />
        </mxCell>
        <mxCell id="0prQu3RbLBqm5UqYHzIN-37" value="End of loop" style="rounded=1;whiteSpace=wrap;html=1;fontSize=13;fontColor=#000000;" parent="1" vertex="1">
          <mxGeometry x="40" y="730" width="80" height="60" as="geometry" />
        </mxCell>
        <mxCell id="cMBQ_GZlDyUK9xvhGsAw-3" style="edgeStyle=orthogonalEdgeStyle;rounded=0;orthogonalLoop=1;jettySize=auto;html=1;entryX=1;entryY=0.5;entryDx=0;entryDy=0;fontSize=13;fontColor=#000000;" parent="1" source="cMBQ_GZlDyUK9xvhGsAw-1" target="0prQu3RbLBqm5UqYHzIN-6" edge="1">
          <mxGeometry relative="1" as="geometry" />
        </mxCell>
        <mxCell id="cMBQ_GZlDyUK9xvhGsAw-4" value="read stream&lt;br&gt;(every 1 min)" style="edgeLabel;html=1;align=center;verticalAlign=middle;resizable=0;points=[];fontSize=13;fontColor=#000000;" parent="cMBQ_GZlDyUK9xvhGsAw-3" vertex="1" connectable="0">
          <mxGeometry x="0.2571" relative="1" as="geometry">
            <mxPoint x="9" as="offset" />
          </mxGeometry>
        </mxCell>
        <mxCell id="cMBQ_GZlDyUK9xvhGsAw-1" value="DataStreamReader" style="rounded=0;whiteSpace=wrap;html=1;fontSize=13;fontColor=#000000;" parent="1" vertex="1">
          <mxGeometry x="689.75" y="375" width="120" height="60" as="geometry" />
        </mxCell>
        <mxCell id="cMBQ_GZlDyUK9xvhGsAw-6" style="edgeStyle=orthogonalEdgeStyle;rounded=0;orthogonalLoop=1;jettySize=auto;html=1;entryX=1;entryY=0.5;entryDx=0;entryDy=0;fontSize=13;fontColor=#000000;" parent="1" source="cMBQ_GZlDyUK9xvhGsAw-5" target="cMBQ_GZlDyUK9xvhGsAw-1" edge="1">
          <mxGeometry relative="1" as="geometry" />
        </mxCell>
        <mxCell id="cMBQ_GZlDyUK9xvhGsAw-8" style="edgeStyle=orthogonalEdgeStyle;rounded=0;orthogonalLoop=1;jettySize=auto;html=1;fontSize=13;fontColor=#000000;" parent="1" source="cMBQ_GZlDyUK9xvhGsAw-5" target="cMBQ_GZlDyUK9xvhGsAw-7" edge="1">
          <mxGeometry relative="1" as="geometry" />
        </mxCell>
        <mxCell id="cMBQ_GZlDyUK9xvhGsAw-5" value="Query" style="rounded=0;whiteSpace=wrap;html=1;fontSize=13;fontColor=#000000;" parent="1" vertex="1">
          <mxGeometry x="830" y="390" width="210" height="30" as="geometry" />
        </mxCell>
        <mxCell id="cMBQ_GZlDyUK9xvhGsAw-38" style="edgeStyle=orthogonalEdgeStyle;rounded=0;orthogonalLoop=1;jettySize=auto;html=1;entryX=0;entryY=0.5;entryDx=0;entryDy=0;fontSize=13;fontColor=#000000;" parent="1" source="cMBQ_GZlDyUK9xvhGsAw-7" target="cMBQ_GZlDyUK9xvhGsAw-37" edge="1">
          <mxGeometry relative="1" as="geometry" />
        </mxCell>
        <mxCell id="cMBQ_GZlDyUK9xvhGsAw-7" value="writeStream" style="rounded=0;whiteSpace=wrap;html=1;fontSize=13;fontColor=#000000;" parent="1" vertex="1">
          <mxGeometry x="1059.75" y="375" width="120" height="60" as="geometry" />
        </mxCell>
        <mxCell id="cMBQ_GZlDyUK9xvhGsAw-35" style="edgeStyle=orthogonalEdgeStyle;rounded=0;orthogonalLoop=1;jettySize=auto;html=1;fontSize=13;fontColor=#000000;" parent="1" source="0prQu3RbLBqm5UqYHzIN-1" edge="1">
          <mxGeometry relative="1" as="geometry">
            <mxPoint x="140" y="300" as="targetPoint" />
            <Array as="points">
              <mxPoint x="600" y="260" />
              <mxPoint x="350" y="260" />
              <mxPoint x="350" y="300" />
              <mxPoint x="140" y="300" />
            </Array>
          </mxGeometry>
        </mxCell>
        <mxCell id="cMBQ_GZlDyUK9xvhGsAw-36" value="HTTP RESPONSE 200" style="edgeLabel;html=1;align=center;verticalAlign=middle;resizable=0;points=[];fontSize=13;fontColor=#000000;" parent="cMBQ_GZlDyUK9xvhGsAw-35" vertex="1" connectable="0">
          <mxGeometry x="0.5495" relative="1" as="geometry">
            <mxPoint as="offset" />
          </mxGeometry>
        </mxCell>
        <mxCell id="0prQu3RbLBqm5UqYHzIN-1" value="Api velib&lt;br&gt;" style="sketch=0;html=1;dashed=0;whitespace=wrap;fillColor=#2875E2;strokeColor=#ffffff;points=[[0.005,0.63,0],[0.1,0.2,0],[0.9,0.2,0],[0.5,0,0],[0.995,0.63,0],[0.72,0.99,0],[0.5,1,0],[0.28,0.99,0]];verticalLabelPosition=bottom;align=center;verticalAlign=top;shape=mxgraph.kubernetes.icon;prIcon=api" parent="1" vertex="1">
          <mxGeometry x="560" y="128.33666666666664" width="80" height="81.66666666666666" as="geometry" />
        </mxCell>
        <mxCell id="0prQu3RbLBqm5UqYHzIN-22" value="&lt;font color=&quot;#ff4040&quot;&gt;2&lt;/font&gt;" style="text;html=1;align=center;verticalAlign=middle;resizable=0;points=[];autosize=1;strokeColor=none;fillColor=none;" parent="1" vertex="1">
          <mxGeometry x="570" y="229.9983333333333" width="30" height="30" as="geometry" />
        </mxCell>
        <mxCell id="cMBQ_GZlDyUK9xvhGsAw-28" style="edgeStyle=orthogonalEdgeStyle;rounded=0;orthogonalLoop=1;jettySize=auto;html=1;entryX=0.5;entryY=1;entryDx=0;entryDy=0;fontSize=13;fontColor=#000000;" parent="1" source="cMBQ_GZlDyUK9xvhGsAw-26" target="0prQu3RbLBqm5UqYHzIN-6" edge="1">
          <mxGeometry relative="1" as="geometry" />
        </mxCell>
        <mxCell id="cMBQ_GZlDyUK9xvhGsAw-34" style="edgeStyle=orthogonalEdgeStyle;rounded=0;orthogonalLoop=1;jettySize=auto;html=1;entryX=0.1;entryY=0.2;entryDx=0;entryDy=0;entryPerimeter=0;fontSize=13;fontColor=#000000;" parent="1" source="cMBQ_GZlDyUK9xvhGsAw-33" target="0prQu3RbLBqm5UqYHzIN-1" edge="1">
          <mxGeometry relative="1" as="geometry" />
        </mxCell>
        <mxCell id="iR06TE0AQQWkr2aL_XJf-6" style="edgeStyle=orthogonalEdgeStyle;rounded=0;orthogonalLoop=1;jettySize=auto;html=1;exitX=0.5;exitY=1;exitDx=0;exitDy=0;" edge="1" parent="1" source="cMBQ_GZlDyUK9xvhGsAw-37" target="iR06TE0AQQWkr2aL_XJf-11">
          <mxGeometry relative="1" as="geometry">
            <mxPoint x="727.363636363636" y="556.8571428571429" as="targetPoint" />
          </mxGeometry>
        </mxCell>
        <mxCell id="cMBQ_GZlDyUK9xvhGsAw-37" value="Sink into file" style="rounded=1;whiteSpace=wrap;html=1;fontSize=13;fontColor=#000000;" parent="1" vertex="1">
          <mxGeometry x="1249.75" y="375" width="120" height="60" as="geometry" />
        </mxCell>
        <mxCell id="iR06TE0AQQWkr2aL_XJf-2" style="edgeStyle=orthogonalEdgeStyle;rounded=0;orthogonalLoop=1;jettySize=auto;html=1;exitX=0.5;exitY=1;exitDx=0;exitDy=0;" edge="1" parent="1" source="cMBQ_GZlDyUK9xvhGsAw-5" target="cMBQ_GZlDyUK9xvhGsAw-5">
          <mxGeometry relative="1" as="geometry" />
        </mxCell>
        <mxCell id="iR06TE0AQQWkr2aL_XJf-9" value="&lt;font style=&quot;font-size: 17px;&quot;&gt;&lt;b&gt;Apache Spark Structured Streaming&lt;br&gt;&lt;/b&gt;&lt;/font&gt;" style="text;html=1;align=center;verticalAlign=middle;resizable=0;points=[];autosize=1;strokeColor=none;fillColor=none;fontSize=13;fontColor=#000000;" vertex="1" parent="1">
          <mxGeometry x="865.004262295082" y="309.99809523809523" width="320" height="30" as="geometry" />
        </mxCell>
        <mxCell id="iR06TE0AQQWkr2aL_XJf-11" value="csv file" style="verticalLabelPosition=bottom;html=1;verticalAlign=top;strokeWidth=1;align=center;outlineConnect=0;dashed=0;outlineConnect=0;shape=mxgraph.aws3d.file;aspect=fixed;strokeColor=#292929;rounded=0;" vertex="1" parent="1">
          <mxGeometry x="569.2" y="570" width="30.8" height="70.6" as="geometry" />
        </mxCell>
        <mxCell id="iR06TE0AQQWkr2aL_XJf-12" value="TODO: apache spark batch processing on csv files =&amp;gt; Apahe ML prediction" style="rounded=1;whiteSpace=wrap;html=1;fillColor=#d5e8d4;strokeColor=#82b366;" vertex="1" parent="1">
          <mxGeometry x="689.75" y="540" width="790" height="170" as="geometry" />
        </mxCell>
      </root>
    </mxGraphModel>
  </diagram>
</mxfile>
